# xmcd
#
# Track frame offsets:
#	150
#	14787
#	24850
#	36435
#	53522
#	68005
#	82337
#	94157
#	108172
#	122342
#	136317
#	148315
#	159805
#	173025
#	183942
#	198007
#	209472
#	222427
#	233600
#	242432
#	256455
#	275690
#	289762
#
# Disc length: 4061 seconds
#
# Revision: 1
# Processed by: cddbd v1.5.2PL0 Copyright (c) Steve Scherf et al.
# Submitted via: audiograbber 1.83.01
#
DISCID=450fdb17
DTITLE=Judy Garland - Stars Of The Silver Screen [Disc 1] Classic Judy
DYEAR=2007
DGENRE=Easy Listening
TTITLE0=(Dear Mr. Gable) You Made Me Love You
TTITLE1=Swanee
TTITLE2=On The Sunny Side Of The Street
TTITLE3=It's A Great Big World (with Virginia O'Brien and Betty Russell)
TTITLE4=Connecticut (with Bing Crosby)
TTITLE5=Yah-Ta-Ta, Yah-Ta-Ta (Talk, Talk, Talk) (with Bing Crosby)
TTITLE6=Friendship (with Johnny Mercer)
TTITLE7=Blues In The Night
TTITLE8=Buds Won't Bud
TTITLE9=Swing Mr Charlie
TTITLE10=Poor You
TTITLE11=Cry Baby, Cry
TTITLE12=Fascinating Rhythm
TTITLE13=Stompin' At The Savoy
TTITLE14=All God's Chillun Got Rhythm
TTITLE15=You Can't Have Everything
TTITLE16=I Got Rhythm
TTITLE17=It's A Great Day For The Irish
TTITLE18=I'm Just Wild About Harry
TTITLE19=Poor Little Rich Girl
TTITLE20=Sweet Sixteen
TTITLE21=Star Of The East
TTITLE22=You'll Never Walk Alone
EXTD=
EXTT0=
EXTT1=
EXTT2=
EXTT3=
EXTT4=
EXTT5=
EXTT6=
EXTT7=
EXTT8=
EXTT9=
EXTT10=
EXTT11=
EXTT12=
EXTT13=
EXTT14=
EXTT15=
EXTT16=
EXTT17=
EXTT18=
EXTT19=
EXTT20=
EXTT21=
EXTT22=
PLAYORDER=
